<svg xmlns="http://www.w3.org/2000/svg" viewBox="0 0 1200 850" width="1200" height="850">
  <defs>
    <style>
      .font-inter { font-family: 'Inter', system-ui, -apple-system, sans-serif; }
      .shadow { filter: drop-shadow(0 2px 4px rgba(0, 0, 0, 0.1)); }
    </style>
    <linearGradient id="v2Grad" x1="0%" y1="0%" x2="100%" y2="0%">
      <stop offset="0%" style="stop-color:#ec4899"/>
      <stop offset="100%" style="stop-color:#db2777"/>
    </linearGradient>
    <linearGradient id="mobileGrad" x1="0%" y1="0%" x2="100%" y2="0%">
      <stop offset="0%" style="stop-color:#22c55e"/>
      <stop offset="100%" style="stop-color:#16a34a"/>
    </linearGradient>
    <linearGradient id="simulationGrad" x1="0%" y1="0%" x2="100%" y2="0%">
      <stop offset="0%" style="stop-color:#f97316"/>
      <stop offset="100%" style="stop-color:#ea580c"/>
    </linearGradient>
    <linearGradient id="multiTenantGrad" x1="0%" y1="0%" x2="100%" y2="0%">
      <stop offset="0%" style="stop-color:#3b82f6"/>
      <stop offset="100%" style="stop-color:#2563eb"/>
    </linearGradient>
    <linearGradient id="advancedGrad" x1="0%" y1="0%" x2="100%" y2="0%">
      <stop offset="0%" style="stop-color:#8b5cf6"/>
      <stop offset="100%" style="stop-color:#7c3aed"/>
    </linearGradient>
  </defs>

  <!-- 배경 -->
  <rect width="1200" height="850" fill="#f8fafc"/>

  <!-- 타이틀 -->
  <text x="600" y="40" text-anchor="middle" class="font-inter" font-size="28" font-weight="700" fill="#0f172a">TriFlow AI V2 로드맵</text>
  <text x="600" y="65" text-anchor="middle" class="font-inter" font-size="14" fill="#64748b">엔터프라이즈 확장 및 모바일 지원 (예상 6개월+)</text>

  <!-- V2 배지 -->
  <rect x="545" y="80" width="110" height="28" rx="14" fill="url(#v2Grad)"/>
  <text x="600" y="100" text-anchor="middle" class="font-inter" font-size="13" font-weight="600" fill="white">Version 2.0</text>

  <!-- V1 기반 표시 -->
  <rect x="50" y="120" width="1100" height="40" rx="8" fill="#dbeafe"/>
  <text x="80" y="146" class="font-inter" font-size="13" font-weight="600" fill="#1d4ed8">V1 v1.0.0 기반</text>
  <text x="210" y="146" class="font-inter" font-size="12" fill="#1d4ed8">Desktop App 완성 후 Cross-Platform 및 엔터프라이즈 기능 확장</text>

  <!-- 섹션 1: Mobile App -->
  <g transform="translate(50, 180)">
    <rect width="270" height="260" rx="12" fill="white" class="shadow"/>
    <rect width="270" height="45" rx="12 12 0 0" fill="url(#mobileGrad)"/>
    <text x="15" y="28" class="font-inter" font-size="14" font-weight="600" fill="white">Mobile App</text>
    <text x="255" y="28" text-anchor="end" class="font-inter" font-size="10" fill="rgba(255,255,255,0.8)">iOS/Android</text>

    <!-- 기능 목록 -->
    <g transform="translate(15, 60)">
      <circle cx="6" cy="6" r="3" fill="#22c55e"/>
      <text x="16" y="10" class="font-inter" font-size="11" fill="#334155">React Native / Flutter</text>

      <circle cx="6" cy="30" r="3" fill="#22c55e"/>
      <text x="16" y="34" class="font-inter" font-size="11" fill="#334155">Push 알림 (FCM/APNS)</text>

      <circle cx="6" cy="54" r="3" fill="#22c55e"/>
      <text x="16" y="58" class="font-inter" font-size="11" fill="#334155">오프라인 동기화</text>

      <circle cx="6" cy="78" r="3" fill="#22c55e"/>
      <text x="16" y="82" class="font-inter" font-size="11" fill="#334155">모바일 대시보드</text>

      <circle cx="6" cy="102" r="3" fill="#22c55e"/>
      <text x="16" y="106" class="font-inter" font-size="11" fill="#334155">음성 인터페이스</text>
    </g>

    <!-- 플랫폼 태그 -->
    <g transform="translate(15, 175)">
      <rect width="50" height="20" rx="4" fill="#dcfce7"/>
      <text x="25" y="14" text-anchor="middle" class="font-inter" font-size="9" fill="#166534">iOS</text>
      <rect x="58" width="70" height="20" rx="4" fill="#dcfce7"/>
      <text x="93" y="14" text-anchor="middle" class="font-inter" font-size="9" fill="#166534">Android</text>
    </g>

    <!-- 예상 기간 -->
    <rect x="15" y="225" width="80" height="22" rx="4" fill="#dcfce7"/>
    <text x="55" y="240" text-anchor="middle" class="font-inter" font-size="10" fill="#166534">10~12주</text>
  </g>

  <!-- 섹션 2: Simulation Engine -->
  <g transform="translate(340, 180)">
    <rect width="270" height="260" rx="12" fill="white" class="shadow"/>
    <rect width="270" height="45" rx="12 12 0 0" fill="url(#simulationGrad)"/>
    <text x="15" y="28" class="font-inter" font-size="14" font-weight="600" fill="white">Simulation Engine</text>
    <text x="255" y="28" text-anchor="end" class="font-inter" font-size="10" fill="rgba(255,255,255,0.8)">+신규 탭</text>

    <!-- 기능 목록 -->
    <g transform="translate(15, 60)">
      <circle cx="6" cy="6" r="3" fill="#f97316"/>
      <text x="16" y="10" class="font-inter" font-size="11" fill="#334155">Digital Twin</text>

      <circle cx="6" cy="30" r="3" fill="#f97316"/>
      <text x="16" y="34" class="font-inter" font-size="11" fill="#334155">What-If 분석</text>

      <circle cx="6" cy="54" r="3" fill="#f97316"/>
      <text x="16" y="58" class="font-inter" font-size="11" fill="#334155">Z-Wave 시뮬레이터</text>

      <circle cx="6" cy="78" r="3" fill="#f97316"/>
      <text x="16" y="82" class="font-inter" font-size="11" fill="#334155">예측 유지보수 모델</text>

      <circle cx="6" cy="102" r="3" fill="#f97316"/>
      <text x="16" y="106" class="font-inter" font-size="11" fill="#334155">시나리오 테스트 자동화</text>
    </g>

    <!-- 새 탭 표시 -->
    <g transform="translate(15, 175)">
      <rect width="100" height="20" rx="4" fill="#fef3c7"/>
      <text x="50" y="14" text-anchor="middle" class="font-inter" font-size="9" fill="#92400e">+Simulation 탭</text>
    </g>

    <!-- 예상 기간 -->
    <rect x="15" y="225" width="80" height="22" rx="4" fill="#fed7aa"/>
    <text x="55" y="240" text-anchor="middle" class="font-inter" font-size="10" fill="#c2410c">8~10주</text>
  </g>

  <!-- 섹션 3: Multi-Tenant -->
  <g transform="translate(630, 180)">
    <rect width="270" height="260" rx="12" fill="white" class="shadow"/>
    <rect width="270" height="45" rx="12 12 0 0" fill="url(#multiTenantGrad)"/>
    <text x="15" y="28" class="font-inter" font-size="14" font-weight="600" fill="white">Multi-Tenant</text>
    <text x="255" y="28" text-anchor="end" class="font-inter" font-size="10" fill="rgba(255,255,255,0.8)">+신규 탭</text>

    <!-- 기능 목록 -->
    <g transform="translate(15, 60)">
      <circle cx="6" cy="6" r="3" fill="#3b82f6"/>
      <text x="16" y="10" class="font-inter" font-size="11" fill="#334155">팀/조직 관리</text>

      <circle cx="6" cy="30" r="3" fill="#3b82f6"/>
      <text x="16" y="34" class="font-inter" font-size="11" fill="#334155">테넌트 격리</text>

      <circle cx="6" cy="54" r="3" fill="#3b82f6"/>
      <text x="16" y="58" class="font-inter" font-size="11" fill="#334155">SSO 연동 (SAML/OIDC)</text>

      <circle cx="6" cy="78" r="3" fill="#3b82f6"/>
      <text x="16" y="82" class="font-inter" font-size="11" fill="#334155">관리자 콘솔</text>

      <circle cx="6" cy="102" r="3" fill="#3b82f6"/>
      <text x="16" y="106" class="font-inter" font-size="11" fill="#334155">사용량 모니터링</text>
    </g>

    <!-- 새 탭 표시 -->
    <g transform="translate(15, 175)">
      <rect width="80" height="20" rx="4" fill="#dbeafe"/>
      <text x="40" y="14" text-anchor="middle" class="font-inter" font-size="9" fill="#1d4ed8">+Admin 탭</text>
    </g>

    <!-- 예상 기간 -->
    <rect x="15" y="225" width="80" height="22" rx="4" fill="#dbeafe"/>
    <text x="55" y="240" text-anchor="middle" class="font-inter" font-size="10" fill="#1d4ed8">8~10주</text>
  </g>

  <!-- 섹션 4: 고급 AI -->
  <g transform="translate(920, 180)">
    <rect width="230" height="260" rx="12" fill="white" class="shadow"/>
    <rect width="230" height="45" rx="12 12 0 0" fill="url(#advancedGrad)"/>
    <text x="15" y="28" class="font-inter" font-size="14" font-weight="600" fill="white">고급 AI 기능</text>
    <text x="215" y="28" text-anchor="end" class="font-inter" font-size="10" fill="rgba(255,255,255,0.8)">Chat/Dash</text>

    <!-- 기능 목록 -->
    <g transform="translate(15, 60)">
      <circle cx="6" cy="6" r="3" fill="#8b5cf6"/>
      <text x="16" y="10" class="font-inter" font-size="11" fill="#334155">Multi-Modal AI</text>

      <circle cx="6" cy="30" r="3" fill="#8b5cf6"/>
      <text x="16" y="34" class="font-inter" font-size="11" fill="#334155">자연어 보고서</text>

      <circle cx="6" cy="54" r="3" fill="#8b5cf6"/>
      <text x="16" y="58" class="font-inter" font-size="11" fill="#334155">이상 탐지</text>

      <circle cx="6" cy="78" r="3" fill="#8b5cf6"/>
      <text x="16" y="82" class="font-inter" font-size="11" fill="#334155">예측 분석</text>

      <circle cx="6" cy="102" r="3" fill="#8b5cf6"/>
      <text x="16" y="106" class="font-inter" font-size="11" fill="#334155">LLM Fine-tuning</text>
    </g>

    <!-- 예상 기간 -->
    <rect x="15" y="225" width="80" height="22" rx="4" fill="#ede9fe"/>
    <text x="55" y="240" text-anchor="middle" class="font-inter" font-size="10" fill="#6d28d9">6~8주</text>
  </g>

  <!-- 타임라인 요약 -->
  <g transform="translate(50, 470)">
    <rect width="1100" height="200" rx="12" fill="white" class="shadow"/>
    <text x="30" y="35" class="font-inter" font-size="16" font-weight="600" fill="#0f172a">V2 개발 타임라인</text>

    <!-- 타임라인 바 -->
    <rect x="30" y="65" width="1040" height="12" rx="6" fill="#e2e8f0"/>

    <!-- Mobile -->
    <rect x="30" y="65" width="310" height="12" rx="6" fill="url(#mobileGrad)"/>
    <text x="185" y="95" text-anchor="middle" class="font-inter" font-size="11" fill="#22c55e">Mobile App (10~12주)</text>

    <!-- Simulation -->
    <rect x="340" y="65" width="250" height="12" rx="6" fill="url(#simulationGrad)"/>
    <text x="465" y="95" text-anchor="middle" class="font-inter" font-size="11" fill="#f97316">Simulation (8~10주)</text>

    <!-- Multi-Tenant -->
    <rect x="590" y="65" width="250" height="12" rx="6" fill="url(#multiTenantGrad)"/>
    <text x="715" y="95" text-anchor="middle" class="font-inter" font-size="11" fill="#3b82f6">Multi-Tenant (8~10주)</text>

    <!-- Advanced AI -->
    <rect x="840" y="65" width="170" height="12" rx="6" fill="url(#advancedGrad)"/>
    <text x="925" y="95" text-anchor="middle" class="font-inter" font-size="11" fill="#8b5cf6">고급 AI (6~8주)</text>

    <!-- 마일스톤 -->
    <polygon points="1070,59 1082,65 1070,71 1058,65" fill="#ec4899"/>
    <text x="1070" y="110" text-anchor="middle" class="font-inter" font-size="12" font-weight="600" fill="#ec4899">v2.0.0</text>

    <!-- 주차 표시 -->
    <g class="font-inter" font-size="10" fill="#64748b">
      <text x="30" y="125">W1</text>
      <text x="340" y="125">W12</text>
      <text x="590" y="125">W22</text>
      <text x="840" y="125">W30</text>
      <text x="1010" y="125">W36</text>
    </g>

    <!-- 핵심 지표 -->
    <g transform="translate(30, 145)">
      <rect width="340" height="40" rx="6" fill="#f1f5f9"/>
      <text x="20" y="26" class="font-inter" font-size="12" fill="#475569">예상 기간: 약 32~38주 (8~9개월)</text>
    </g>
    <g transform="translate(390, 145)">
      <rect width="280" height="40" rx="6" fill="#f1f5f9"/>
      <text x="20" y="26" class="font-inter" font-size="12" fill="#475569">주요 기능: 4개 모듈</text>
    </g>
    <g transform="translate(690, 145)">
      <rect width="380" height="40" rx="6" fill="#fef3c7"/>
      <text x="20" y="26" class="font-inter" font-size="12" fill="#92400e">탭 구조: +2개 추가 (총 7개)</text>
    </g>
  </g>

  <!-- V2 탭 구조 변경 안내 -->
  <g transform="translate(50, 700)">
    <rect width="1100" height="50" rx="8" fill="#fef3c7"/>
    <text x="30" y="32" class="font-inter" font-size="13" font-weight="600" fill="#92400e">V2 탭 구조 (예상):</text>
    <text x="200" y="32" class="font-inter" font-size="12" fill="#92400e">Chat | Dashboard | Workflows | Data | Simulation (신규) | Admin (신규) | Settings = 총 7개 탭</text>
  </g>

  <!-- 범례 -->
  <g transform="translate(50, 780)">
    <rect x="0" y="-8" width="12" height="12" rx="3" fill="url(#mobileGrad)"/>
    <text x="18" y="2" class="font-inter" font-size="11" fill="#334155">Mobile App</text>
    <rect x="120" y="-8" width="12" height="12" rx="3" fill="url(#simulationGrad)"/>
    <text x="138" y="2" class="font-inter" font-size="11" fill="#334155">Simulation</text>
    <rect x="240" y="-8" width="12" height="12" rx="3" fill="url(#multiTenantGrad)"/>
    <text x="258" y="2" class="font-inter" font-size="11" fill="#334155">Multi-Tenant</text>
    <rect x="370" y="-8" width="12" height="12" rx="3" fill="url(#advancedGrad)"/>
    <text x="388" y="2" class="font-inter" font-size="11" fill="#334155">고급 AI</text>
  </g>
</svg>
