<svg xmlns="http://www.w3.org/2000/svg" viewBox="0 0 1200 800" width="1200" height="800">
  <defs>
    <style>
      .font-inter { font-family: 'Inter', system-ui, -apple-system, sans-serif; }
      .shadow { filter: drop-shadow(0 2px 4px rgba(0, 0, 0, 0.1)); }
    </style>
    <linearGradient id="v1Grad" x1="0%" y1="0%" x2="100%" y2="0%">
      <stop offset="0%" style="stop-color:#6366f1"/>
      <stop offset="100%" style="stop-color:#4f46e5"/>
    </linearGradient>
    <linearGradient id="builderGrad" x1="0%" y1="0%" x2="100%" y2="0%">
      <stop offset="0%" style="stop-color:#3b82f6"/>
      <stop offset="100%" style="stop-color:#2563eb"/>
    </linearGradient>
    <linearGradient id="learningGrad" x1="0%" y1="0%" x2="100%" y2="0%">
      <stop offset="0%" style="stop-color:#8b5cf6"/>
      <stop offset="100%" style="stop-color:#7c3aed"/>
    </linearGradient>
    <linearGradient id="integrationGrad" x1="0%" y1="0%" x2="100%" y2="0%">
      <stop offset="0%" style="stop-color:#06b6d4"/>
      <stop offset="100%" style="stop-color:#0891b2"/>
    </linearGradient>
    <linearGradient id="securityGrad" x1="0%" y1="0%" x2="100%" y2="0%">
      <stop offset="0%" style="stop-color:#f59e0b"/>
      <stop offset="100%" style="stop-color:#d97706"/>
    </linearGradient>
  </defs>

  <!-- 배경 -->
  <rect width="1200" height="800" fill="#f8fafc"/>

  <!-- 타이틀 -->
  <text x="600" y="40" text-anchor="middle" class="font-inter" font-size="28" font-weight="700" fill="#0f172a">TriFlow AI V1 로드맵</text>
  <text x="600" y="65" text-anchor="middle" class="font-inter" font-size="14" fill="#64748b">MVP 이후 확장 기능 (예상 3~4개월)</text>

  <!-- V1 배지 -->
  <rect x="545" y="80" width="110" height="28" rx="14" fill="url(#v1Grad)"/>
  <text x="600" y="100" text-anchor="middle" class="font-inter" font-size="13" font-weight="600" fill="white">Version 1.0</text>

  <!-- MVP 기반 표시 -->
  <rect x="50" y="120" width="1100" height="40" rx="8" fill="#dcfce7"/>
  <text x="80" y="146" class="font-inter" font-size="13" font-weight="600" fill="#166534">MVP v0.1.0 기반</text>
  <text x="220" y="146" class="font-inter" font-size="12" fill="#166534">5개 탭 유지 (Chat, Dashboard, Workflows, Data, Settings) + 기능 확장</text>

  <!-- 섹션 1: Builder UI -->
  <g transform="translate(50, 180)">
    <rect width="270" height="240" rx="12" fill="white" class="shadow"/>
    <rect width="270" height="45" rx="12 12 0 0" fill="url(#builderGrad)"/>
    <text x="15" y="28" class="font-inter" font-size="14" font-weight="600" fill="white">Builder UI</text>
    <text x="255" y="28" text-anchor="end" class="font-inter" font-size="10" fill="rgba(255,255,255,0.8)">Workflows 탭</text>

    <!-- 기능 목록 -->
    <g transform="translate(15, 60)">
      <circle cx="6" cy="6" r="3" fill="#3b82f6"/>
      <text x="16" y="10" class="font-inter" font-size="11" fill="#334155">Drag and Drop 에디터</text>

      <circle cx="6" cy="30" r="3" fill="#3b82f6"/>
      <text x="16" y="34" class="font-inter" font-size="11" fill="#334155">Node-based 시각적 편집</text>

      <circle cx="6" cy="54" r="3" fill="#3b82f6"/>
      <text x="16" y="58" class="font-inter" font-size="11" fill="#334155">Action Catalog 확장</text>

      <circle cx="6" cy="78" r="3" fill="#3b82f6"/>
      <text x="16" y="82" class="font-inter" font-size="11" fill="#334155">조건부 분기 (If/Else)</text>

      <circle cx="6" cy="102" r="3" fill="#3b82f6"/>
      <text x="16" y="106" class="font-inter" font-size="11" fill="#334155">Loop/Parallel 실행</text>
    </g>

    <!-- 예상 기간 -->
    <rect x="15" y="205" width="70" height="22" rx="4" fill="#dbeafe"/>
    <text x="50" y="220" text-anchor="middle" class="font-inter" font-size="10" fill="#1d4ed8">4~6주</text>
  </g>

  <!-- 섹션 2: Learning Pipeline -->
  <g transform="translate(340, 180)">
    <rect width="270" height="240" rx="12" fill="white" class="shadow"/>
    <rect width="270" height="45" rx="12 12 0 0" fill="url(#learningGrad)"/>
    <text x="15" y="28" class="font-inter" font-size="14" font-weight="600" fill="white">Learning Pipeline</text>
    <text x="255" y="28" text-anchor="end" class="font-inter" font-size="10" fill="rgba(255,255,255,0.8)">Settings 탭</text>

    <!-- 기능 목록 -->
    <g transform="translate(15, 60)">
      <circle cx="6" cy="6" r="3" fill="#8b5cf6"/>
      <text x="16" y="10" class="font-inter" font-size="11" fill="#334155">피드백 데이터 수집</text>

      <circle cx="6" cy="30" r="3" fill="#8b5cf6"/>
      <text x="16" y="34" class="font-inter" font-size="11" fill="#334155">규칙 자동 제안</text>

      <circle cx="6" cy="54" r="3" fill="#8b5cf6"/>
      <text x="16" y="58" class="font-inter" font-size="11" fill="#334155">A/B 테스트 프레임워크</text>

      <circle cx="6" cy="78" r="3" fill="#8b5cf6"/>
      <text x="16" y="82" class="font-inter" font-size="11" fill="#334155">Rhai 규칙 버전 관리</text>

      <circle cx="6" cy="102" r="3" fill="#8b5cf6"/>
      <text x="16" y="106" class="font-inter" font-size="11" fill="#334155">학습 대시보드</text>
    </g>

    <!-- 예상 기간 -->
    <rect x="15" y="205" width="70" height="22" rx="4" fill="#ede9fe"/>
    <text x="50" y="220" text-anchor="middle" class="font-inter" font-size="10" fill="#6d28d9">5~7주</text>
  </g>

  <!-- 섹션 3: 외부 연동 -->
  <g transform="translate(630, 180)">
    <rect width="270" height="240" rx="12" fill="white" class="shadow"/>
    <rect width="270" height="45" rx="12 12 0 0" fill="url(#integrationGrad)"/>
    <text x="15" y="28" class="font-inter" font-size="14" font-weight="600" fill="white">외부 시스템 연동</text>
    <text x="255" y="28" text-anchor="end" class="font-inter" font-size="10" fill="rgba(255,255,255,0.8)">Data 탭</text>

    <!-- 기능 목록 -->
    <g transform="translate(15, 60)">
      <circle cx="6" cy="6" r="3" fill="#06b6d4"/>
      <text x="16" y="10" class="font-inter" font-size="11" fill="#334155">ERP/MES API 연결</text>

      <circle cx="6" cy="30" r="3" fill="#06b6d4"/>
      <text x="16" y="34" class="font-inter" font-size="11" fill="#334155">실시간 센서 스트리밍</text>

      <circle cx="6" cy="54" r="3" fill="#06b6d4"/>
      <text x="16" y="58" class="font-inter" font-size="11" fill="#334155">Webhook 알림</text>

      <circle cx="6" cy="78" r="3" fill="#06b6d4"/>
      <text x="16" y="82" class="font-inter" font-size="11" fill="#334155">CSV/Excel Import</text>

      <circle cx="6" cy="102" r="3" fill="#06b6d4"/>
      <text x="16" y="106" class="font-inter" font-size="11" fill="#334155">데이터 동기화 스케줄러</text>
    </g>

    <!-- 예상 기간 -->
    <rect x="15" y="205" width="70" height="22" rx="4" fill="#cffafe"/>
    <text x="50" y="220" text-anchor="middle" class="font-inter" font-size="10" fill="#0e7490">4~5주</text>
  </g>

  <!-- 섹션 4: 보안 -->
  <g transform="translate(920, 180)">
    <rect width="230" height="240" rx="12" fill="white" class="shadow"/>
    <rect width="230" height="45" rx="12 12 0 0" fill="url(#securityGrad)"/>
    <text x="15" y="28" class="font-inter" font-size="14" font-weight="600" fill="white">보안 강화</text>
    <text x="215" y="28" text-anchor="end" class="font-inter" font-size="10" fill="rgba(255,255,255,0.8)">전체 탭</text>

    <!-- 기능 목록 -->
    <g transform="translate(15, 60)">
      <circle cx="6" cy="6" r="3" fill="#f59e0b"/>
      <text x="16" y="10" class="font-inter" font-size="11" fill="#334155">OAuth2 인증</text>

      <circle cx="6" cy="30" r="3" fill="#f59e0b"/>
      <text x="16" y="34" class="font-inter" font-size="11" fill="#334155">RBAC 접근 제어</text>

      <circle cx="6" cy="54" r="3" fill="#f59e0b"/>
      <text x="16" y="58" class="font-inter" font-size="11" fill="#334155">감사 로그</text>

      <circle cx="6" cy="78" r="3" fill="#f59e0b"/>
      <text x="16" y="82" class="font-inter" font-size="11" fill="#334155">API Key 관리</text>
    </g>

    <!-- 예상 기간 -->
    <rect x="15" y="205" width="70" height="22" rx="4" fill="#fef3c7"/>
    <text x="50" y="220" text-anchor="middle" class="font-inter" font-size="10" fill="#92400e">3~4주</text>
  </g>

  <!-- 타임라인 요약 -->
  <g transform="translate(50, 450)">
    <rect width="1100" height="200" rx="12" fill="white" class="shadow"/>
    <text x="30" y="35" class="font-inter" font-size="16" font-weight="600" fill="#0f172a">V1 개발 타임라인</text>

    <!-- 타임라인 바 -->
    <rect x="30" y="65" width="1040" height="12" rx="6" fill="#e2e8f0"/>

    <!-- Builder UI -->
    <rect x="30" y="65" width="260" height="12" rx="6" fill="url(#builderGrad)"/>
    <text x="160" y="95" text-anchor="middle" class="font-inter" font-size="11" fill="#3b82f6">Builder UI (4~6주)</text>

    <!-- Learning -->
    <rect x="290" y="65" width="300" height="12" rx="6" fill="url(#learningGrad)"/>
    <text x="440" y="95" text-anchor="middle" class="font-inter" font-size="11" fill="#8b5cf6">Learning Pipeline (5~7주)</text>

    <!-- 외부 연동 -->
    <rect x="590" y="65" width="240" height="12" rx="6" fill="url(#integrationGrad)"/>
    <text x="710" y="95" text-anchor="middle" class="font-inter" font-size="11" fill="#06b6d4">외부 연동 (4~5주)</text>

    <!-- 보안 -->
    <rect x="830" y="65" width="180" height="12" rx="6" fill="url(#securityGrad)"/>
    <text x="920" y="95" text-anchor="middle" class="font-inter" font-size="11" fill="#f59e0b">보안 (3~4주)</text>

    <!-- 마일스톤 -->
    <polygon points="1070,59 1082,65 1070,71 1058,65" fill="#22c55e"/>
    <text x="1070" y="110" text-anchor="middle" class="font-inter" font-size="12" font-weight="600" fill="#22c55e">v1.0.0</text>

    <!-- 주차 표시 -->
    <g class="font-inter" font-size="10" fill="#64748b">
      <text x="30" y="125">W1</text>
      <text x="290" y="125">W6</text>
      <text x="590" y="125">W12</text>
      <text x="830" y="125">W16</text>
      <text x="1010" y="125">W20</text>
    </g>

    <!-- 핵심 지표 -->
    <g transform="translate(30, 145)">
      <rect width="340" height="40" rx="6" fill="#f1f5f9"/>
      <text x="20" y="26" class="font-inter" font-size="12" fill="#475569">예상 기간: 약 16~20주 (4~5개월)</text>
    </g>
    <g transform="translate(390, 145)">
      <rect width="280" height="40" rx="6" fill="#f1f5f9"/>
      <text x="20" y="26" class="font-inter" font-size="12" fill="#475569">주요 기능: 4개 모듈</text>
    </g>
    <g transform="translate(690, 145)">
      <rect width="380" height="40" rx="6" fill="#f1f5f9"/>
      <text x="20" y="26" class="font-inter" font-size="12" fill="#475569">탭 구조: MVP와 동일 (5개 탭 유지)</text>
    </g>
  </g>

  <!-- 범례 -->
  <g transform="translate(50, 680)">
    <rect x="0" y="-8" width="12" height="12" rx="3" fill="url(#builderGrad)"/>
    <text x="18" y="2" class="font-inter" font-size="11" fill="#334155">Builder UI</text>
    <rect x="120" y="-8" width="12" height="12" rx="3" fill="url(#learningGrad)"/>
    <text x="138" y="2" class="font-inter" font-size="11" fill="#334155">Learning Pipeline</text>
    <rect x="280" y="-8" width="12" height="12" rx="3" fill="url(#integrationGrad)"/>
    <text x="298" y="2" class="font-inter" font-size="11" fill="#334155">외부 연동</text>
    <rect x="400" y="-8" width="12" height="12" rx="3" fill="url(#securityGrad)"/>
    <text x="418" y="2" class="font-inter" font-size="11" fill="#334155">보안 강화</text>
  </g>
</svg>
