<svg xmlns="http://www.w3.org/2000/svg" viewBox="0 0 1200 700" width="1200" height="700">
  <defs>
    <style>
      .font-inter { font-family: 'Inter', system-ui, -apple-system, sans-serif; }
      .shadow { filter: drop-shadow(0 2px 4px rgba(0, 0, 0, 0.1)); }
    </style>
    <linearGradient id="v1Grad" x1="0%" y1="0%" x2="100%" y2="0%">
      <stop offset="0%" style="stop-color:#6366f1"/>
      <stop offset="100%" style="stop-color:#4f46e5"/>
    </linearGradient>
    <linearGradient id="builderGrad" x1="0%" y1="0%" x2="100%" y2="0%">
      <stop offset="0%" style="stop-color:#3b82f6"/>
      <stop offset="100%" style="stop-color:#2563eb"/>
    </linearGradient>
    <linearGradient id="learningGrad" x1="0%" y1="0%" x2="100%" y2="0%">
      <stop offset="0%" style="stop-color:#8b5cf6"/>
      <stop offset="100%" style="stop-color:#7c3aed"/>
    </linearGradient>
    <linearGradient id="integrationGrad" x1="0%" y1="0%" x2="100%" y2="0%">
      <stop offset="0%" style="stop-color:#06b6d4"/>
      <stop offset="100%" style="stop-color:#0891b2"/>
    </linearGradient>
    <linearGradient id="securityGrad" x1="0%" y1="0%" x2="100%" y2="0%">
      <stop offset="0%" style="stop-color:#f59e0b"/>
      <stop offset="100%" style="stop-color:#d97706"/>
    </linearGradient>
  </defs>

  <!-- 배경 -->
  <rect width="1200" height="700" fill="#f8fafc"/>

  <!-- 타이틀 -->
  <text x="600" y="45" text-anchor="middle" class="font-inter" font-size="28" font-weight="700" fill="#0f172a">TriFlow AI V1 로드맵</text>
  <text x="600" y="75" text-anchor="middle" class="font-inter" font-size="14" fill="#64748b">MVP 이후 확장 기능 (예상 3~4개월)</text>

  <!-- V1 배지 -->
  <rect x="545" y="95" width="110" height="32" rx="16" fill="url(#v1Grad)"/>
  <text x="600" y="117" text-anchor="middle" class="font-inter" font-size="14" font-weight="600" fill="white">Version 1.0</text>

  <!-- MVP 기반 표시 -->
  <rect x="50" y="145" width="1100" height="50" rx="8" fill="#dcfce7"/>
  <text x="100" y="177" class="font-inter" font-size="14" font-weight="600" fill="#166534">MVP v0.1.0 기반</text>
  <text x="250" y="177" class="font-inter" font-size="12" fill="#166534">5개 탭 유지 (Chat, Dashboard, Workflows, Data, Settings) + 기능 확장</text>

  <!-- 섹션 1: Builder UI -->
  <g transform="translate(50, 215)">
    <rect width="350" height="220" rx="12" fill="white" class="shadow"/>
    <rect width="350" height="50" rx="12 12 0 0" fill="url(#builderGrad)"/>
    <text x="20" y="32" class="font-inter" font-size="16" font-weight="600" fill="white">Builder UI</text>
    <text x="200" y="32" class="font-inter" font-size="12" fill="rgba(255,255,255,0.8)">Workflows 탭 확장</text>

    <!-- 기능 목록 -->
    <g transform="translate(20, 70)">
      <circle cx="8" cy="8" r="4" fill="#3b82f6"/>
      <text x="20" y="12" class="font-inter" font-size="12" fill="#334155">Drag & Drop 워크플로우 에디터</text>

      <circle cx="8" cy="38" r="4" fill="#3b82f6"/>
      <text x="20" y="42" class="font-inter" font-size="12" fill="#334155">Node-based 시각적 편집</text>

      <circle cx="8" cy="68" r="4" fill="#3b82f6"/>
      <text x="20" y="72" class="font-inter" font-size="12" fill="#334155">Action Catalog 확장</text>

      <circle cx="8" cy="98" r="4" fill="#3b82f6"/>
      <text x="20" y="102" class="font-inter" font-size="12" fill="#334155">조건부 분기 (If/Else)</text>

      <circle cx="8" cy="128" r="4" fill="#3b82f6"/>
      <text x="20" y="132" class="font-inter" font-size="12" fill="#334155">Loop/Parallel 실행</text>
    </g>

    <!-- 예상 기간 -->
    <rect x="20" y="190" width="80" height="20" rx="4" fill="#dbeafe"/>
    <text x="60" y="204" text-anchor="middle" class="font-inter" font-size="10" fill="#1d4ed8">4~6주</text>
  </g>

  <!-- 섹션 2: Learning Pipeline -->
  <g transform="translate(425, 215)">
    <rect width="350" height="220" rx="12" fill="white" class="shadow"/>
    <rect width="350" height="50" rx="12 12 0 0" fill="url(#learningGrad)"/>
    <text x="20" y="32" class="font-inter" font-size="16" font-weight="600" fill="white">Learning Pipeline</text>
    <text x="230" y="32" class="font-inter" font-size="12" fill="rgba(255,255,255,0.8)">Settings 탭 확장</text>

    <!-- 기능 목록 -->
    <g transform="translate(20, 70)">
      <circle cx="8" cy="8" r="4" fill="#8b5cf6"/>
      <text x="20" y="12" class="font-inter" font-size="12" fill="#334155">피드백 데이터 수집</text>

      <circle cx="8" cy="38" r="4" fill="#8b5cf6"/>
      <text x="20" y="42" class="font-inter" font-size="12" fill="#334155">규칙 자동 제안 (Learning Agent)</text>

      <circle cx="8" cy="68" r="4" fill="#8b5cf6"/>
      <text x="20" y="72" class="font-inter" font-size="12" fill="#334155">A/B 테스트 프레임워크</text>

      <circle cx="8" cy="98" r="4" fill="#8b5cf6"/>
      <text x="20" y="102" class="font-inter" font-size="12" fill="#334155">Rhai 규칙 버전 관리</text>

      <circle cx="8" cy="128" r="4" fill="#8b5cf6"/>
      <text x="20" y="132" class="font-inter" font-size="12" fill="#334155">학습 대시보드 (성능 지표)</text>
    </g>

    <!-- 예상 기간 -->
    <rect x="20" y="190" width="80" height="20" rx="4" fill="#ede9fe"/>
    <text x="60" y="204" text-anchor="middle" class="font-inter" font-size="10" fill="#6d28d9">5~7주</text>
  </g>

  <!-- 섹션 3: 외부 연동 -->
  <g transform="translate(800, 215)">
    <rect width="350" height="220" rx="12" fill="white" class="shadow"/>
    <rect width="350" height="50" rx="12 12 0 0" fill="url(#integrationGrad)"/>
    <text x="20" y="32" class="font-inter" font-size="16" font-weight="600" fill="white">외부 시스템 연동</text>
    <text x="230" y="32" class="font-inter" font-size="12" fill="rgba(255,255,255,0.8)">Data 탭 확장</text>

    <!-- 기능 목록 -->
    <g transform="translate(20, 70)">
      <circle cx="8" cy="8" r="4" fill="#06b6d4"/>
      <text x="20" y="12" class="font-inter" font-size="12" fill="#334155">ERP/MES API 연결</text>

      <circle cx="8" cy="38" r="4" fill="#06b6d4"/>
      <text x="20" y="42" class="font-inter" font-size="12" fill="#334155">실시간 센서 데이터 스트리밍</text>

      <circle cx="8" cy="68" r="4" fill="#06b6d4"/>
      <text x="20" y="72" class="font-inter" font-size="12" fill="#334155">Webhook 알림 (Slack, Teams)</text>

      <circle cx="8" cy="98" r="4" fill="#06b6d4"/>
      <text x="20" y="102" class="font-inter" font-size="12" fill="#334155">CSV/Excel 대량 Import</text>

      <circle cx="8" cy="128" r="4" fill="#06b6d4"/>
      <text x="20" y="132" class="font-inter" font-size="12" fill="#334155">데이터 동기화 스케줄러</text>
    </g>

    <!-- 예상 기간 -->
    <rect x="20" y="190" width="80" height="20" rx="4" fill="#cffafe"/>
    <text x="60" y="204" text-anchor="middle" class="font-inter" font-size="10" fill="#0e7490">4~5주</text>
  </g>

  <!-- 섹션 4: 보안 & 인증 강화 -->
  <g transform="translate(50, 455)">
    <rect width="350" height="180" rx="12" fill="white" class="shadow"/>
    <rect width="350" height="50" rx="12 12 0 0" fill="url(#securityGrad)"/>
    <text x="20" y="32" class="font-inter" font-size="16" font-weight="600" fill="white">보안 & 인증 강화</text>
    <text x="230" y="32" class="font-inter" font-size="12" fill="rgba(255,255,255,0.8)">전체 탭 적용</text>

    <!-- 기능 목록 -->
    <g transform="translate(20, 70)">
      <circle cx="8" cy="8" r="4" fill="#f59e0b"/>
      <text x="20" y="12" class="font-inter" font-size="12" fill="#334155">사용자 인증 (OAuth2)</text>

      <circle cx="8" cy="38" r="4" fill="#f59e0b"/>
      <text x="20" y="42" class="font-inter" font-size="12" fill="#334155">역할 기반 접근 제어 (RBAC)</text>

      <circle cx="8" cy="68" r="4" fill="#f59e0b"/>
      <text x="20" y="72" class="font-inter" font-size="12" fill="#334155">감사 로그 (Audit Trail)</text>

      <circle cx="8" cy="98" r="4" fill="#f59e0b"/>
      <text x="20" y="102" class="font-inter" font-size="12" fill="#334155">API Key 관리</text>
    </g>

    <!-- 예상 기간 -->
    <rect x="20" y="150" width="80" height="20" rx="4" fill="#fef3c7"/>
    <text x="60" y="164" text-anchor="middle" class="font-inter" font-size="10" fill="#92400e">3~4주</text>
  </g>

  <!-- 타임라인 요약 -->
  <g transform="translate(425, 455)">
    <rect width="725" height="180" rx="12" fill="white" class="shadow"/>
    <text x="20" y="30" class="font-inter" font-size="14" font-weight="600" fill="#0f172a">V1 개발 타임라인</text>

    <!-- 타임라인 바 -->
    <rect x="20" y="55" width="685" height="8" rx="4" fill="#e2e8f0"/>

    <!-- Builder UI -->
    <rect x="20" y="55" width="180" height="8" rx="4" fill="url(#builderGrad)"/>
    <text x="110" y="80" text-anchor="middle" class="font-inter" font-size="10" fill="#3b82f6">Builder UI</text>

    <!-- Learning -->
    <rect x="200" y="55" width="220" height="8" rx="4" fill="url(#learningGrad)"/>
    <text x="310" y="80" text-anchor="middle" class="font-inter" font-size="10" fill="#8b5cf6">Learning Pipeline</text>

    <!-- 외부 연동 -->
    <rect x="420" y="55" width="160" height="8" rx="4" fill="url(#integrationGrad)"/>
    <text x="500" y="80" text-anchor="middle" class="font-inter" font-size="10" fill="#06b6d4">외부 연동</text>

    <!-- 보안 -->
    <rect x="580" y="55" width="125" height="8" rx="4" fill="url(#securityGrad)"/>
    <text x="642" y="80" text-anchor="middle" class="font-inter" font-size="10" fill="#f59e0b">보안</text>

    <!-- 주차 표시 -->
    <g class="font-inter" font-size="10" fill="#64748b">
      <text x="20" y="100">W1</text>
      <text x="180" y="100">W6</text>
      <text x="310" y="100">W11</text>
      <text x="500" y="100">W14</text>
      <text x="685" y="100" text-anchor="end">W16</text>
    </g>

    <!-- 마일스톤 -->
    <polygon points="705,48 715,55 705,62 695,55" fill="#22c55e"/>
    <text x="705" y="110" text-anchor="middle" class="font-inter" font-size="11" font-weight="600" fill="#22c55e">v1.0.0</text>

    <!-- 핵심 지표 -->
    <g transform="translate(20, 130)">
      <rect width="200" height="40" rx="6" fill="#f1f5f9"/>
      <text x="15" y="26" class="font-inter" font-size="11" fill="#475569">예상 기간: 약 16주</text>
    </g>
    <g transform="translate(240, 130)">
      <rect width="200" height="40" rx="6" fill="#f1f5f9"/>
      <text x="15" y="26" class="font-inter" font-size="11" fill="#475569">주요 기능: 4개 모듈</text>
    </g>
    <g transform="translate(460, 130)">
      <rect width="245" height="40" rx="6" fill="#f1f5f9"/>
      <text x="15" y="26" class="font-inter" font-size="11" fill="#475569">탭 구조: MVP와 동일 (5개)</text>
    </g>
  </g>

  <!-- 범례 -->
  <g transform="translate(50, 660)">
    <rect x="0" y="-10" width="14" height="14" rx="3" fill="url(#builderGrad)"/>
    <text x="20" y="1" class="font-inter" font-size="11" fill="#334155">Builder UI</text>
    <rect x="110" y="-10" width="14" height="14" rx="3" fill="url(#learningGrad)"/>
    <text x="130" y="1" class="font-inter" font-size="11" fill="#334155">Learning Pipeline</text>
    <rect x="260" y="-10" width="14" height="14" rx="3" fill="url(#integrationGrad)"/>
    <text x="280" y="1" class="font-inter" font-size="11" fill="#334155">외부 연동</text>
    <rect x="370" y="-10" width="14" height="14" rx="3" fill="url(#securityGrad)"/>
    <text x="390" y="1" class="font-inter" font-size="11" fill="#334155">보안 강화</text>
  </g>
</svg>
